<mxfile host="app.diagrams.net" modified="2024-06-25T09:43:19.640Z" agent="Mozilla/5.0 (Windows NT 10.0; Win64; x64) AppleWebKit/537.36 (KHTML, like Gecko) Chrome/126.0.0.0 Safari/537.36" etag="qzqJl4wCx3LdPn6ZKtIx" scale="1" border="0" version="24.5.4" type="device">
  <diagram name="Page-1" id="Gt783l8SdNuSCkTdCH9-">
    <mxGraphModel dx="3494" dy="3057" grid="1" gridSize="10" guides="1" tooltips="1" connect="1" arrows="1" fold="1" page="1" pageScale="1" pageWidth="2700" pageHeight="2600" math="0" shadow="0">
      <root>
        <mxCell id="0" />
        <mxCell id="1" parent="0" />
        <mxCell id="w90hISoUzw1H_DNkiZnl-122" value="" style="rounded=1;whiteSpace=wrap;html=1;fillColor=#CCCCFF;shadow=1;strokeWidth=2;" parent="1" vertex="1">
          <mxGeometry x="-730" y="1300" width="3300" height="890" as="geometry" />
        </mxCell>
        <mxCell id="3QM09EX1bIOt38hpte0W-36" value="" style="shape=image;imageAspect=0;aspect=fixed;verticalLabelPosition=bottom;verticalAlign=top;image=https://seeklogo.com/images/A/angular-icon-logo-5FC0C40EAC-seeklogo.com.png;" parent="1" vertex="1">
          <mxGeometry x="300" y="-37.5" width="70.75" height="75" as="geometry" />
        </mxCell>
        <mxCell id="w90hISoUzw1H_DNkiZnl-117" style="edgeStyle=orthogonalEdgeStyle;rounded=0;orthogonalLoop=1;jettySize=auto;html=1;entryX=0.5;entryY=0;entryDx=0;entryDy=0;strokeWidth=3;" parent="1" source="w90hISoUzw1H_DNkiZnl-3" target="w90hISoUzw1H_DNkiZnl-103" edge="1">
          <mxGeometry relative="1" as="geometry">
            <Array as="points">
              <mxPoint x="920" y="620" />
              <mxPoint x="-350" y="620" />
            </Array>
          </mxGeometry>
        </mxCell>
        <mxCell id="w90hISoUzw1H_DNkiZnl-118" style="edgeStyle=orthogonalEdgeStyle;rounded=0;orthogonalLoop=1;jettySize=auto;html=1;exitX=0.5;exitY=1;exitDx=0;exitDy=0;entryX=0.5;entryY=0;entryDx=0;entryDy=0;strokeWidth=3;" parent="1" source="w90hISoUzw1H_DNkiZnl-3" target="w90hISoUzw1H_DNkiZnl-14" edge="1">
          <mxGeometry relative="1" as="geometry">
            <Array as="points">
              <mxPoint x="920" y="620" />
              <mxPoint x="500" y="620" />
            </Array>
          </mxGeometry>
        </mxCell>
        <mxCell id="w90hISoUzw1H_DNkiZnl-119" style="edgeStyle=orthogonalEdgeStyle;rounded=0;orthogonalLoop=1;jettySize=auto;html=1;exitX=0.5;exitY=1;exitDx=0;exitDy=0;entryX=0.5;entryY=0;entryDx=0;entryDy=0;strokeWidth=3;" parent="1" source="w90hISoUzw1H_DNkiZnl-3" target="w90hISoUzw1H_DNkiZnl-31" edge="1">
          <mxGeometry relative="1" as="geometry">
            <Array as="points">
              <mxPoint x="920" y="620" />
              <mxPoint x="1340" y="620" />
            </Array>
          </mxGeometry>
        </mxCell>
        <mxCell id="w90hISoUzw1H_DNkiZnl-120" style="edgeStyle=orthogonalEdgeStyle;rounded=0;orthogonalLoop=1;jettySize=auto;html=1;exitX=0.5;exitY=1;exitDx=0;exitDy=0;entryX=0.5;entryY=0;entryDx=0;entryDy=0;strokeWidth=3;" parent="1" source="w90hISoUzw1H_DNkiZnl-3" target="w90hISoUzw1H_DNkiZnl-63" edge="1">
          <mxGeometry relative="1" as="geometry">
            <Array as="points">
              <mxPoint x="920" y="620" />
              <mxPoint x="2180" y="620" />
            </Array>
          </mxGeometry>
        </mxCell>
        <mxCell id="w90hISoUzw1H_DNkiZnl-3" value="&lt;b&gt;&lt;font style=&quot;font-size: 61px;&quot;&gt;App Navbar&lt;/font&gt;&lt;/b&gt;" style="rounded=1;whiteSpace=wrap;html=1;fillColor=#FFFFFF;shadow=1;strokeWidth=2;" parent="1" vertex="1">
          <mxGeometry x="695" y="430" width="450" height="150" as="geometry" />
        </mxCell>
        <mxCell id="w90hISoUzw1H_DNkiZnl-9" style="edgeStyle=orthogonalEdgeStyle;rounded=0;orthogonalLoop=1;jettySize=auto;html=1;strokeWidth=3;" parent="1" source="w90hISoUzw1H_DNkiZnl-7" target="w90hISoUzw1H_DNkiZnl-3" edge="1">
          <mxGeometry relative="1" as="geometry" />
        </mxCell>
        <mxCell id="w90hISoUzw1H_DNkiZnl-7" value="&lt;b style=&quot;font-size: 57px;&quot;&gt;&lt;font style=&quot;font-size: 57px;&quot;&gt;App component&lt;/font&gt;&lt;/b&gt;&lt;div style=&quot;font-size: 57px;&quot;&gt;&lt;b style=&quot;&quot;&gt;&lt;font style=&quot;font-size: 57px;&quot;&gt;&amp;nbsp;(root)&lt;/font&gt;&lt;/b&gt;&lt;/div&gt;" style="strokeWidth=2;html=1;shape=mxgraph.flowchart.start_1;whiteSpace=wrap;" parent="1" vertex="1">
          <mxGeometry x="647.5" y="101.26" width="545" height="238.74" as="geometry" />
        </mxCell>
        <mxCell id="w90hISoUzw1H_DNkiZnl-10" value="&lt;font style=&quot;font-size: 42px;&quot;&gt;Bootstrapping&lt;/font&gt;" style="text;html=1;align=center;verticalAlign=middle;resizable=0;points=[];autosize=1;strokeColor=none;fillColor=none;" parent="1" vertex="1">
          <mxGeometry x="935" y="353.75" width="280" height="60" as="geometry" />
        </mxCell>
        <mxCell id="w90hISoUzw1H_DNkiZnl-14" value="" style="rounded=1;whiteSpace=wrap;html=1;fillColor=#FFE6CC;shadow=1;strokeWidth=2;" parent="1" vertex="1">
          <mxGeometry x="110" y="740" width="780" height="420" as="geometry" />
        </mxCell>
        <mxCell id="w90hISoUzw1H_DNkiZnl-17" value="&lt;font style=&quot;font-size: 52px;&quot;&gt;&lt;b style=&quot;&quot;&gt;Preferences&lt;/b&gt;&lt;/font&gt;" style="text;html=1;align=center;verticalAlign=middle;resizable=0;points=[];autosize=1;strokeColor=none;fillColor=none;" parent="1" vertex="1">
          <mxGeometry x="110" y="630" width="320" height="80" as="geometry" />
        </mxCell>
        <mxCell id="w90hISoUzw1H_DNkiZnl-30" value="&lt;font style=&quot;font-size: 52px;&quot;&gt;&lt;b style=&quot;&quot;&gt;Itinerary&lt;/b&gt;&lt;/font&gt;" style="text;html=1;align=center;verticalAlign=middle;resizable=0;points=[];autosize=1;strokeColor=none;fillColor=none;" parent="1" vertex="1">
          <mxGeometry x="950" y="630" width="230" height="80" as="geometry" />
        </mxCell>
        <mxCell id="w90hISoUzw1H_DNkiZnl-31" value="" style="rounded=1;whiteSpace=wrap;html=1;fillColor=#FFFFCC;shadow=1;strokeWidth=2;" parent="1" vertex="1">
          <mxGeometry x="950" y="740" width="780" height="420" as="geometry" />
        </mxCell>
        <mxCell id="w90hISoUzw1H_DNkiZnl-32" value="&lt;b&gt;&lt;font style=&quot;font-size: 52px;&quot;&gt;Itinerary Component&lt;/font&gt;&lt;/b&gt;" style="rounded=1;whiteSpace=wrap;html=1;fillColor=#FFFFFF;shadow=1;strokeWidth=2;" parent="1" vertex="1">
          <mxGeometry x="1035" y="860" width="610" height="180" as="geometry" />
        </mxCell>
        <mxCell id="w90hISoUzw1H_DNkiZnl-37" style="edgeStyle=orthogonalEdgeStyle;rounded=0;orthogonalLoop=1;jettySize=auto;html=1;entryX=0.123;entryY=1.004;entryDx=0;entryDy=0;entryPerimeter=0;strokeWidth=3;" parent="1" source="w90hISoUzw1H_DNkiZnl-22" target="w90hISoUzw1H_DNkiZnl-31" edge="1">
          <mxGeometry relative="1" as="geometry" />
        </mxCell>
        <mxCell id="w90hISoUzw1H_DNkiZnl-22" value="&lt;b&gt;&lt;font style=&quot;font-size: 50px;&quot;&gt;Preferences Service&lt;/font&gt;&lt;/b&gt;" style="rounded=1;whiteSpace=wrap;html=1;fillColor=#FFFFFF;shadow=1;strokeWidth=2;" parent="1" vertex="1">
          <mxGeometry x="750" y="1330" width="370" height="160" as="geometry" />
        </mxCell>
        <mxCell id="w90hISoUzw1H_DNkiZnl-35" value="&lt;font style=&quot;font-size: 52px;&quot;&gt;&lt;b style=&quot;background-color: initial;&quot;&gt;Services&lt;/b&gt;&lt;/font&gt;" style="text;html=1;align=center;verticalAlign=middle;resizable=0;points=[];autosize=1;strokeColor=none;fillColor=none;" parent="1" vertex="1">
          <mxGeometry x="-735" y="1200" width="240" height="80" as="geometry" />
        </mxCell>
        <mxCell id="w90hISoUzw1H_DNkiZnl-36" style="edgeStyle=orthogonalEdgeStyle;rounded=0;orthogonalLoop=1;jettySize=auto;html=1;entryX=0.919;entryY=1.001;entryDx=0;entryDy=0;entryPerimeter=0;strokeWidth=3;" parent="1" source="w90hISoUzw1H_DNkiZnl-22" target="w90hISoUzw1H_DNkiZnl-14" edge="1">
          <mxGeometry relative="1" as="geometry" />
        </mxCell>
        <mxCell id="w90hISoUzw1H_DNkiZnl-38" value="&lt;b style=&quot;&quot;&gt;&lt;font style=&quot;font-size: 37px;&quot;&gt;Amadeus Auth Service&lt;/font&gt;&lt;/b&gt;" style="rounded=1;whiteSpace=wrap;html=1;fillColor=#FFFFFF;shadow=1;strokeWidth=2;" parent="1" vertex="1">
          <mxGeometry x="260.75" y="1320" width="389.25" height="130" as="geometry" />
        </mxCell>
        <mxCell id="w90hISoUzw1H_DNkiZnl-49" style="edgeStyle=orthogonalEdgeStyle;rounded=0;orthogonalLoop=1;jettySize=auto;html=1;entryX=0.09;entryY=1.004;entryDx=0;entryDy=0;entryPerimeter=0;strokeWidth=3;" parent="1" source="w90hISoUzw1H_DNkiZnl-39" target="w90hISoUzw1H_DNkiZnl-14" edge="1">
          <mxGeometry relative="1" as="geometry">
            <mxPoint x="180" y="1350" as="targetPoint" />
            <Array as="points">
              <mxPoint x="180" y="1530" />
            </Array>
          </mxGeometry>
        </mxCell>
        <mxCell id="w90hISoUzw1H_DNkiZnl-39" value="&lt;b style=&quot;&quot;&gt;&lt;font style=&quot;font-size: 37px;&quot;&gt;Search Destination Service&lt;/font&gt;&lt;/b&gt;" style="rounded=1;whiteSpace=wrap;html=1;fillColor=#FFFFFF;shadow=1;strokeWidth=2;" parent="1" vertex="1">
          <mxGeometry x="261.25" y="1470" width="390" height="110" as="geometry" />
        </mxCell>
        <mxCell id="w90hISoUzw1H_DNkiZnl-40" value="&lt;b style=&quot;&quot;&gt;&lt;font style=&quot;font-size: 37px;&quot;&gt;Country Mapping Service&lt;/font&gt;&lt;/b&gt;" style="rounded=1;whiteSpace=wrap;html=1;fillColor=#FFFFFF;shadow=1;strokeWidth=2;" parent="1" vertex="1">
          <mxGeometry x="263.75" y="1730" width="387.5" height="100" as="geometry" />
        </mxCell>
        <mxCell id="w90hISoUzw1H_DNkiZnl-52" style="edgeStyle=orthogonalEdgeStyle;rounded=0;orthogonalLoop=1;jettySize=auto;html=1;strokeWidth=3;" parent="1" source="w90hISoUzw1H_DNkiZnl-41" edge="1">
          <mxGeometry relative="1" as="geometry">
            <mxPoint x="180" y="1160" as="targetPoint" />
          </mxGeometry>
        </mxCell>
        <mxCell id="w90hISoUzw1H_DNkiZnl-41" value="&lt;b style=&quot;&quot;&gt;&lt;font style=&quot;font-size: 37px;&quot;&gt;Popular Destinations Service&lt;/font&gt;&lt;/b&gt;" style="rounded=1;whiteSpace=wrap;html=1;fillColor=#FFFFFF;shadow=1;strokeWidth=2;" parent="1" vertex="1">
          <mxGeometry x="257.5" y="1610" width="390" height="100" as="geometry" />
        </mxCell>
        <mxCell id="w90hISoUzw1H_DNkiZnl-53" style="edgeStyle=orthogonalEdgeStyle;rounded=0;orthogonalLoop=1;jettySize=auto;html=1;strokeWidth=3;" parent="1" source="w90hISoUzw1H_DNkiZnl-42" edge="1">
          <mxGeometry relative="1" as="geometry">
            <mxPoint x="180" y="1160" as="targetPoint" />
          </mxGeometry>
        </mxCell>
        <mxCell id="w90hISoUzw1H_DNkiZnl-42" value="&lt;b style=&quot;&quot;&gt;&lt;font style=&quot;font-size: 37px;&quot;&gt;Airport City Mapping Service&lt;/font&gt;&lt;/b&gt;" style="rounded=1;whiteSpace=wrap;html=1;fillColor=#FFFFFF;shadow=1;strokeWidth=2;" parent="1" vertex="1">
          <mxGeometry x="257.5" y="1860" width="390" height="100" as="geometry" />
        </mxCell>
        <mxCell id="w90hISoUzw1H_DNkiZnl-45" value="&lt;b style=&quot;&quot;&gt;&lt;font style=&quot;font-size: 37px;&quot;&gt;Media Service&lt;/font&gt;&lt;/b&gt;" style="rounded=1;whiteSpace=wrap;html=1;fillColor=#FFFFFF;shadow=1;strokeWidth=2;" parent="1" vertex="1">
          <mxGeometry x="260" y="1990" width="390" height="100" as="geometry" />
        </mxCell>
        <mxCell id="w90hISoUzw1H_DNkiZnl-48" style="edgeStyle=orthogonalEdgeStyle;rounded=0;orthogonalLoop=1;jettySize=auto;html=1;entryX=0.09;entryY=1;entryDx=0;entryDy=0;entryPerimeter=0;strokeWidth=3;" parent="1" source="w90hISoUzw1H_DNkiZnl-38" target="w90hISoUzw1H_DNkiZnl-14" edge="1">
          <mxGeometry relative="1" as="geometry">
            <Array as="points">
              <mxPoint x="180" y="1410" />
            </Array>
          </mxGeometry>
        </mxCell>
        <mxCell id="w90hISoUzw1H_DNkiZnl-50" style="edgeStyle=orthogonalEdgeStyle;rounded=0;orthogonalLoop=1;jettySize=auto;html=1;entryX=0.091;entryY=1.002;entryDx=0;entryDy=0;entryPerimeter=0;strokeWidth=3;" parent="1" source="w90hISoUzw1H_DNkiZnl-40" target="w90hISoUzw1H_DNkiZnl-14" edge="1">
          <mxGeometry relative="1" as="geometry">
            <Array as="points">
              <mxPoint x="180" y="1780" />
              <mxPoint x="180" y="1590" />
            </Array>
          </mxGeometry>
        </mxCell>
        <mxCell id="w90hISoUzw1H_DNkiZnl-51" style="edgeStyle=orthogonalEdgeStyle;rounded=0;orthogonalLoop=1;jettySize=auto;html=1;entryX=0.09;entryY=1.002;entryDx=0;entryDy=0;entryPerimeter=0;strokeWidth=3;exitX=0;exitY=0.5;exitDx=0;exitDy=0;" parent="1" source="w90hISoUzw1H_DNkiZnl-45" target="w90hISoUzw1H_DNkiZnl-14" edge="1">
          <mxGeometry relative="1" as="geometry">
            <mxPoint x="260" y="1920" as="sourcePoint" />
            <mxPoint x="181.99" y="1160" as="targetPoint" />
            <Array as="points">
              <mxPoint x="180" y="2040" />
            </Array>
          </mxGeometry>
        </mxCell>
        <mxCell id="w90hISoUzw1H_DNkiZnl-59" style="edgeStyle=orthogonalEdgeStyle;rounded=0;orthogonalLoop=1;jettySize=auto;html=1;exitX=1;exitY=0.5;exitDx=0;exitDy=0;strokeWidth=3;" parent="1" source="w90hISoUzw1H_DNkiZnl-55" edge="1">
          <mxGeometry relative="1" as="geometry">
            <mxPoint x="1580" y="1160" as="targetPoint" />
            <mxPoint x="1275" y="1389.9999999999998" as="sourcePoint" />
            <Array as="points">
              <mxPoint x="1580" y="1440" />
            </Array>
          </mxGeometry>
        </mxCell>
        <mxCell id="w90hISoUzw1H_DNkiZnl-55" value="&lt;b style=&quot;&quot;&gt;&lt;font style=&quot;font-size: 37px;&quot;&gt;Text Search Service&lt;/font&gt;&lt;/b&gt;" style="rounded=1;whiteSpace=wrap;html=1;fillColor=#FFFFFF;shadow=1;strokeWidth=2;" parent="1" vertex="1">
          <mxGeometry x="1200" y="1340" width="350" height="140" as="geometry" />
        </mxCell>
        <mxCell id="w90hISoUzw1H_DNkiZnl-60" style="edgeStyle=orthogonalEdgeStyle;rounded=0;orthogonalLoop=1;jettySize=auto;html=1;exitX=1;exitY=0.5;exitDx=0;exitDy=0;strokeWidth=3;" parent="1" source="w90hISoUzw1H_DNkiZnl-56" edge="1">
          <mxGeometry relative="1" as="geometry">
            <mxPoint x="1580" y="1160" as="targetPoint" />
            <mxPoint x="1275" y="1500.0000000000005" as="sourcePoint" />
            <Array as="points">
              <mxPoint x="1580" y="1560" />
            </Array>
          </mxGeometry>
        </mxCell>
        <mxCell id="w90hISoUzw1H_DNkiZnl-56" value="&lt;b style=&quot;&quot;&gt;&lt;font style=&quot;font-size: 37px;&quot;&gt;Svg Service&lt;/font&gt;&lt;/b&gt;" style="rounded=1;whiteSpace=wrap;html=1;fillColor=#FFFFFF;shadow=1;strokeWidth=2;" parent="1" vertex="1">
          <mxGeometry x="1200" y="1520" width="350" height="140" as="geometry" />
        </mxCell>
        <mxCell id="w90hISoUzw1H_DNkiZnl-62" value="&lt;font style=&quot;font-size: 52px;&quot;&gt;&lt;b style=&quot;&quot;&gt;Itinerary List&lt;/b&gt;&lt;/font&gt;" style="text;html=1;align=center;verticalAlign=middle;resizable=0;points=[];autosize=1;strokeColor=none;fillColor=none;" parent="1" vertex="1">
          <mxGeometry x="1800" y="630" width="340" height="80" as="geometry" />
        </mxCell>
        <mxCell id="w90hISoUzw1H_DNkiZnl-63" value="" style="rounded=1;whiteSpace=wrap;html=1;fillColor=#E6FFCC;shadow=1;strokeWidth=2;" parent="1" vertex="1">
          <mxGeometry x="1790" y="740" width="780" height="420" as="geometry" />
        </mxCell>
        <mxCell id="w90hISoUzw1H_DNkiZnl-99" style="edgeStyle=orthogonalEdgeStyle;rounded=0;orthogonalLoop=1;jettySize=auto;html=1;entryX=0.5;entryY=0;entryDx=0;entryDy=0;startArrow=classic;startFill=1;" parent="1" source="w90hISoUzw1H_DNkiZnl-64" target="w90hISoUzw1H_DNkiZnl-65" edge="1">
          <mxGeometry relative="1" as="geometry" />
        </mxCell>
        <mxCell id="w90hISoUzw1H_DNkiZnl-64" value="&lt;b&gt;&lt;font style=&quot;font-size: 52px;&quot;&gt;Itinerary List Component&lt;/font&gt;&lt;/b&gt;" style="rounded=1;whiteSpace=wrap;html=1;fillColor=#FFFFFF;shadow=1;strokeWidth=2;" parent="1" vertex="1">
          <mxGeometry x="1820" y="790" width="710" height="130" as="geometry" />
        </mxCell>
        <mxCell id="w90hISoUzw1H_DNkiZnl-65" value="&lt;b&gt;&lt;font style=&quot;font-size: 52px;&quot;&gt;Itinerary View Component&lt;/font&gt;&lt;/b&gt;" style="rounded=1;whiteSpace=wrap;html=1;fillColor=#FFFFFF;shadow=1;strokeWidth=2;" parent="1" vertex="1">
          <mxGeometry x="1820" y="970" width="710" height="130" as="geometry" />
        </mxCell>
        <mxCell id="w90hISoUzw1H_DNkiZnl-68" value="&lt;b&gt;&lt;font style=&quot;font-size: 46px;&quot;&gt;Itinerary Service&lt;/font&gt;&lt;/b&gt;" style="rounded=1;whiteSpace=wrap;html=1;fillColor=#FFFFFF;shadow=1;strokeWidth=2;" parent="1" vertex="1">
          <mxGeometry x="1660" y="1350" width="350" height="130" as="geometry" />
        </mxCell>
        <mxCell id="w90hISoUzw1H_DNkiZnl-69" style="edgeStyle=orthogonalEdgeStyle;rounded=0;orthogonalLoop=1;jettySize=auto;html=1;strokeWidth=3;" parent="1" source="w90hISoUzw1H_DNkiZnl-68" edge="1">
          <mxGeometry relative="1" as="geometry">
            <mxPoint x="1639" y="1160" as="targetPoint" />
            <Array as="points">
              <mxPoint x="1830" y="1240" />
              <mxPoint x="1638" y="1240" />
              <mxPoint x="1638" y="1164" />
            </Array>
          </mxGeometry>
        </mxCell>
        <mxCell id="w90hISoUzw1H_DNkiZnl-73" value="&lt;b style=&quot;&quot;&gt;&lt;font style=&quot;font-size: 37px;&quot;&gt;Photo Search Service&lt;/font&gt;&lt;/b&gt;" style="rounded=1;whiteSpace=wrap;html=1;fillColor=#FFFFFF;shadow=1;strokeWidth=2;" parent="1" vertex="1">
          <mxGeometry x="2140" y="1370" width="290" height="120" as="geometry" />
        </mxCell>
        <mxCell id="w90hISoUzw1H_DNkiZnl-75" value="&lt;b style=&quot;&quot;&gt;&lt;font style=&quot;font-size: 37px;&quot;&gt;Text Search Service&lt;/font&gt;&lt;/b&gt;" style="rounded=1;whiteSpace=wrap;html=1;fillColor=#FFFFFF;shadow=1;strokeWidth=2;" parent="1" vertex="1">
          <mxGeometry x="2140" y="1510" width="290" height="110" as="geometry" />
        </mxCell>
        <mxCell id="w90hISoUzw1H_DNkiZnl-76" value="&lt;b style=&quot;&quot;&gt;&lt;font style=&quot;font-size: 37px;&quot;&gt;Photo Search Service&lt;/font&gt;&lt;/b&gt;" style="rounded=1;whiteSpace=wrap;html=1;fillColor=#FFFFFF;shadow=1;strokeWidth=2;" parent="1" vertex="1">
          <mxGeometry x="2140" y="1660" width="290" height="120" as="geometry" />
        </mxCell>
        <mxCell id="w90hISoUzw1H_DNkiZnl-85" style="edgeStyle=orthogonalEdgeStyle;rounded=0;orthogonalLoop=1;jettySize=auto;html=1;strokeWidth=3;" parent="1" edge="1">
          <mxGeometry relative="1" as="geometry">
            <mxPoint x="710" y="1170" as="targetPoint" />
            <mxPoint x="920" y="1950" as="sourcePoint" />
            <Array as="points">
              <mxPoint x="920" y="2020" />
              <mxPoint x="920" y="1940" />
              <mxPoint x="710" y="1940" />
            </Array>
          </mxGeometry>
        </mxCell>
        <mxCell id="w90hISoUzw1H_DNkiZnl-86" style="edgeStyle=orthogonalEdgeStyle;rounded=0;orthogonalLoop=1;jettySize=auto;html=1;entryX=0.315;entryY=0.999;entryDx=0;entryDy=0;strokeWidth=3;entryPerimeter=0;" parent="1" source="w90hISoUzw1H_DNkiZnl-79" target="w90hISoUzw1H_DNkiZnl-63" edge="1">
          <mxGeometry relative="1" as="geometry" />
        </mxCell>
        <mxCell id="w90hISoUzw1H_DNkiZnl-112" style="edgeStyle=orthogonalEdgeStyle;rounded=0;orthogonalLoop=1;jettySize=auto;html=1;entryX=0.5;entryY=1;entryDx=0;entryDy=0;strokeWidth=3;" parent="1" source="w90hISoUzw1H_DNkiZnl-79" target="w90hISoUzw1H_DNkiZnl-103" edge="1">
          <mxGeometry relative="1" as="geometry" />
        </mxCell>
        <mxCell id="w90hISoUzw1H_DNkiZnl-79" value="&lt;b&gt;&lt;font style=&quot;font-size: 50px;&quot;&gt;Auth Service&lt;/font&gt;&lt;/b&gt;" style="rounded=1;whiteSpace=wrap;html=1;fillColor=#FFFFFF;shadow=1;strokeWidth=2;" parent="1" vertex="1">
          <mxGeometry x="712.5" y="2070" width="415" height="100" as="geometry" />
        </mxCell>
        <mxCell id="w90hISoUzw1H_DNkiZnl-80" style="edgeStyle=orthogonalEdgeStyle;rounded=0;orthogonalLoop=1;jettySize=auto;html=1;exitX=1;exitY=0.5;exitDx=0;exitDy=0;strokeWidth=3;" parent="1" source="w90hISoUzw1H_DNkiZnl-73" edge="1">
          <mxGeometry relative="1" as="geometry">
            <mxPoint x="2475" y="1160" as="targetPoint" />
            <Array as="points">
              <mxPoint x="2475" y="1450" />
            </Array>
          </mxGeometry>
        </mxCell>
        <mxCell id="w90hISoUzw1H_DNkiZnl-82" style="edgeStyle=orthogonalEdgeStyle;rounded=0;orthogonalLoop=1;jettySize=auto;html=1;entryX=0.879;entryY=1.002;entryDx=0;entryDy=0;entryPerimeter=0;strokeWidth=3;" parent="1" source="w90hISoUzw1H_DNkiZnl-75" target="w90hISoUzw1H_DNkiZnl-63" edge="1">
          <mxGeometry relative="1" as="geometry">
            <Array as="points">
              <mxPoint x="2476" y="1580" />
            </Array>
          </mxGeometry>
        </mxCell>
        <mxCell id="w90hISoUzw1H_DNkiZnl-83" style="edgeStyle=orthogonalEdgeStyle;rounded=0;orthogonalLoop=1;jettySize=auto;html=1;strokeWidth=3;" parent="1" source="w90hISoUzw1H_DNkiZnl-76" edge="1">
          <mxGeometry relative="1" as="geometry">
            <mxPoint x="2476" y="1160" as="targetPoint" />
            <Array as="points">
              <mxPoint x="2476" y="1700" />
            </Array>
          </mxGeometry>
        </mxCell>
        <mxCell id="w90hISoUzw1H_DNkiZnl-84" style="edgeStyle=orthogonalEdgeStyle;rounded=0;orthogonalLoop=1;jettySize=auto;html=1;entryX=0.25;entryY=1;entryDx=0;entryDy=0;strokeWidth=3;exitX=0.486;exitY=0.015;exitDx=0;exitDy=0;exitPerimeter=0;" parent="1" source="w90hISoUzw1H_DNkiZnl-68" target="w90hISoUzw1H_DNkiZnl-63" edge="1">
          <mxGeometry relative="1" as="geometry">
            <mxPoint x="1760" y="1350" as="sourcePoint" />
            <Array as="points">
              <mxPoint x="1830" y="1240" />
              <mxPoint x="1985" y="1240" />
            </Array>
          </mxGeometry>
        </mxCell>
        <mxCell id="w90hISoUzw1H_DNkiZnl-87" style="edgeStyle=orthogonalEdgeStyle;rounded=0;orthogonalLoop=1;jettySize=auto;html=1;entryX=0.25;entryY=1;entryDx=0;entryDy=0;strokeWidth=3;" parent="1" source="w90hISoUzw1H_DNkiZnl-79" target="w90hISoUzw1H_DNkiZnl-31" edge="1">
          <mxGeometry relative="1" as="geometry">
            <Array as="points">
              <mxPoint x="920" y="1940" />
              <mxPoint x="1145" y="1940" />
            </Array>
          </mxGeometry>
        </mxCell>
        <mxCell id="w90hISoUzw1H_DNkiZnl-96" style="edgeStyle=orthogonalEdgeStyle;rounded=0;orthogonalLoop=1;jettySize=auto;html=1;startArrow=classic;startFill=1;" parent="1" source="w90hISoUzw1H_DNkiZnl-92" target="w90hISoUzw1H_DNkiZnl-93" edge="1">
          <mxGeometry relative="1" as="geometry" />
        </mxCell>
        <mxCell id="w90hISoUzw1H_DNkiZnl-92" value="&lt;b&gt;&lt;font style=&quot;font-size: 48px;&quot;&gt;Destination Component&lt;/font&gt;&lt;/b&gt;" style="rounded=1;whiteSpace=wrap;html=1;fillColor=#FFFFFF;shadow=1;strokeWidth=2;" parent="1" vertex="1">
          <mxGeometry x="150" y="760" width="700" height="70" as="geometry" />
        </mxCell>
        <mxCell id="w90hISoUzw1H_DNkiZnl-97" style="edgeStyle=orthogonalEdgeStyle;rounded=0;orthogonalLoop=1;jettySize=auto;html=1;startArrow=classic;startFill=1;" parent="1" source="w90hISoUzw1H_DNkiZnl-93" target="w90hISoUzw1H_DNkiZnl-94" edge="1">
          <mxGeometry relative="1" as="geometry" />
        </mxCell>
        <mxCell id="w90hISoUzw1H_DNkiZnl-93" value="&lt;b&gt;&lt;font style=&quot;font-size: 48px;&quot;&gt;Period Component&lt;/font&gt;&lt;/b&gt;" style="rounded=1;whiteSpace=wrap;html=1;fillColor=#FFFFFF;shadow=1;strokeWidth=2;" parent="1" vertex="1">
          <mxGeometry x="150" y="860" width="700" height="70" as="geometry" />
        </mxCell>
        <mxCell id="w90hISoUzw1H_DNkiZnl-98" style="edgeStyle=orthogonalEdgeStyle;rounded=0;orthogonalLoop=1;jettySize=auto;html=1;startArrow=classic;startFill=1;" parent="1" source="w90hISoUzw1H_DNkiZnl-94" target="w90hISoUzw1H_DNkiZnl-95" edge="1">
          <mxGeometry relative="1" as="geometry" />
        </mxCell>
        <mxCell id="w90hISoUzw1H_DNkiZnl-94" value="&lt;b&gt;&lt;font style=&quot;font-size: 48px;&quot;&gt;Companion Component&lt;/font&gt;&lt;/b&gt;" style="rounded=1;whiteSpace=wrap;html=1;fillColor=#FFFFFF;shadow=1;strokeWidth=2;" parent="1" vertex="1">
          <mxGeometry x="150" y="960" width="700" height="70" as="geometry" />
        </mxCell>
        <mxCell id="w90hISoUzw1H_DNkiZnl-95" value="&lt;b&gt;&lt;font style=&quot;font-size: 48px;&quot;&gt;Interests Component&lt;/font&gt;&lt;/b&gt;" style="rounded=1;whiteSpace=wrap;html=1;fillColor=#FFFFFF;shadow=1;strokeWidth=2;" parent="1" vertex="1">
          <mxGeometry x="155" y="1060" width="690" height="70" as="geometry" />
        </mxCell>
        <mxCell id="w90hISoUzw1H_DNkiZnl-101" value="&lt;b style=&quot;&quot;&gt;&lt;font style=&quot;font-size: 72px;&quot;&gt;Arhitectura Frontend (Angular)&lt;/font&gt;&lt;/b&gt;" style="text;html=1;align=center;verticalAlign=middle;resizable=0;points=[];autosize=1;strokeColor=none;fillColor=none;" parent="1" vertex="1">
          <mxGeometry x="410" y="-50" width="1080" height="100" as="geometry" />
        </mxCell>
        <mxCell id="w90hISoUzw1H_DNkiZnl-102" value="&lt;font size=&quot;1&quot; style=&quot;&quot;&gt;&lt;b style=&quot;font-size: 52px;&quot;&gt;Authentication&lt;/b&gt;&lt;/font&gt;" style="text;html=1;align=center;verticalAlign=middle;resizable=0;points=[];autosize=1;strokeColor=none;fillColor=none;" parent="1" vertex="1">
          <mxGeometry x="-735" y="630" width="390" height="80" as="geometry" />
        </mxCell>
        <mxCell id="w90hISoUzw1H_DNkiZnl-103" value="" style="rounded=1;whiteSpace=wrap;html=1;fillColor=#FFCCCC;shadow=1;strokeWidth=2;" parent="1" vertex="1">
          <mxGeometry x="-740" y="740" width="780" height="420" as="geometry" />
        </mxCell>
        <mxCell id="w90hISoUzw1H_DNkiZnl-104" style="edgeStyle=orthogonalEdgeStyle;rounded=0;orthogonalLoop=1;jettySize=auto;html=1;entryX=0.5;entryY=0;entryDx=0;entryDy=0;startArrow=classic;startFill=1;" parent="1" edge="1">
          <mxGeometry relative="1" as="geometry">
            <mxPoint x="-350" y="920" as="sourcePoint" />
          </mxGeometry>
        </mxCell>
        <mxCell id="w90hISoUzw1H_DNkiZnl-109" style="edgeStyle=orthogonalEdgeStyle;rounded=0;orthogonalLoop=1;jettySize=auto;html=1;entryX=0.5;entryY=0;entryDx=0;entryDy=0;startArrow=classic;startFill=1;" parent="1" source="w90hISoUzw1H_DNkiZnl-110" target="w90hISoUzw1H_DNkiZnl-111" edge="1">
          <mxGeometry relative="1" as="geometry" />
        </mxCell>
        <mxCell id="w90hISoUzw1H_DNkiZnl-110" value="&lt;b&gt;&lt;font style=&quot;font-size: 52px;&quot;&gt;Login Component&lt;/font&gt;&lt;/b&gt;" style="rounded=1;whiteSpace=wrap;html=1;fillColor=#FFFFFF;shadow=1;strokeWidth=2;" parent="1" vertex="1">
          <mxGeometry x="-700" y="780" width="720" height="155" as="geometry" />
        </mxCell>
        <mxCell id="w90hISoUzw1H_DNkiZnl-111" value="&lt;b&gt;&lt;font style=&quot;font-size: 52px;&quot;&gt;Register Component&lt;/font&gt;&lt;/b&gt;" style="rounded=1;whiteSpace=wrap;html=1;fillColor=#FFFFFF;shadow=1;strokeWidth=2;" parent="1" vertex="1">
          <mxGeometry x="-700" y="970" width="720" height="160" as="geometry" />
        </mxCell>
        <mxCell id="w90hISoUzw1H_DNkiZnl-128" value="&lt;b style=&quot;forced-color-adjust: none; color: rgb(0, 0, 0); font-family: Helvetica; font-style: normal; font-variant-ligatures: normal; font-variant-caps: normal; letter-spacing: normal; orphans: 2; text-align: center; text-indent: 0px; text-transform: none; widows: 2; word-spacing: 0px; -webkit-text-stroke-width: 0px; white-space: nowrap; background-color: rgb(251, 251, 251); text-decoration-thickness: initial; text-decoration-style: initial; text-decoration-color: initial;&quot;&gt;&lt;font style=&quot;font-size: 57px;&quot;&gt;Common (shared)&lt;/font&gt;&lt;/b&gt;" style="text;whiteSpace=wrap;html=1;" parent="1" vertex="1">
          <mxGeometry x="1750" y="-10" width="490" height="50" as="geometry" />
        </mxCell>
        <mxCell id="w90hISoUzw1H_DNkiZnl-129" value="" style="rounded=1;whiteSpace=wrap;html=1;fillColor=#D3E8E6;shadow=1;strokeWidth=2;" parent="1" vertex="1">
          <mxGeometry x="1420" y="101.26" width="1150" height="420" as="geometry" />
        </mxCell>
        <mxCell id="w90hISoUzw1H_DNkiZnl-130" value="&lt;b style=&quot;&quot;&gt;&lt;font style=&quot;font-size: 50px;&quot;&gt;Models&lt;/font&gt;&lt;/b&gt;" style="rounded=1;whiteSpace=wrap;html=1;fillColor=#FFFFFF;shadow=1;strokeWidth=2;" parent="1" vertex="1">
          <mxGeometry x="2015" y="130" width="525" height="150" as="geometry" />
        </mxCell>
        <mxCell id="w90hISoUzw1H_DNkiZnl-131" value="&lt;b&gt;&lt;font style=&quot;font-size: 50px;&quot;&gt;Pipes (Async, Date)&lt;/font&gt;&lt;/b&gt;" style="rounded=1;whiteSpace=wrap;html=1;fillColor=#FFFFFF;shadow=1;strokeWidth=2;" parent="1" vertex="1">
          <mxGeometry x="1450" y="130" width="540" height="150.63" as="geometry" />
        </mxCell>
        <mxCell id="w90hISoUzw1H_DNkiZnl-132" value="&lt;b&gt;&lt;font style=&quot;font-size: 50px;&quot;&gt;Utils&lt;/font&gt;&lt;/b&gt;" style="rounded=1;whiteSpace=wrap;html=1;fillColor=#FFFFFF;shadow=1;strokeWidth=2;" parent="1" vertex="1">
          <mxGeometry x="1450" y="321.89" width="550" height="158.75" as="geometry" />
        </mxCell>
        <mxCell id="w90hISoUzw1H_DNkiZnl-133" value="&lt;b style=&quot;&quot;&gt;&lt;font style=&quot;font-size: 50px;&quot;&gt;Data&lt;/font&gt;&lt;/b&gt;" style="rounded=1;whiteSpace=wrap;html=1;fillColor=#FFFFFF;shadow=1;strokeWidth=2;" parent="1" vertex="1">
          <mxGeometry x="2030" y="326.26" width="510" height="150" as="geometry" />
        </mxCell>
        <mxCell id="w90hISoUzw1H_DNkiZnl-134" value="&lt;font style=&quot;font-size: 46px;&quot;&gt;Lazy Loading&lt;/font&gt;" style="text;html=1;align=center;verticalAlign=middle;resizable=0;points=[];autosize=1;strokeColor=none;fillColor=none;" parent="1" vertex="1">
          <mxGeometry x="540" y="640" width="300" height="70" as="geometry" />
        </mxCell>
        <mxCell id="w90hISoUzw1H_DNkiZnl-135" value="&lt;font style=&quot;font-size: 46px;&quot;&gt;Lazy Loading&lt;/font&gt;" style="text;html=1;align=center;verticalAlign=middle;resizable=0;points=[];autosize=1;strokeColor=none;fillColor=none;" parent="1" vertex="1">
          <mxGeometry x="1390" y="640" width="300" height="70" as="geometry" />
        </mxCell>
        <mxCell id="w90hISoUzw1H_DNkiZnl-136" value="&lt;font style=&quot;font-size: 46px;&quot;&gt;Lazy Loading&lt;/font&gt;" style="text;html=1;align=center;verticalAlign=middle;resizable=0;points=[];autosize=1;strokeColor=none;fillColor=none;" parent="1" vertex="1">
          <mxGeometry x="2220" y="635" width="300" height="70" as="geometry" />
        </mxCell>
        <mxCell id="lQJ2qB2qZJZWqwuJhyhI-1" value="&lt;b style=&quot;forced-color-adjust: none; color: rgb(0, 0, 0); font-family: Helvetica; font-style: normal; font-variant-ligatures: normal; font-variant-caps: normal; letter-spacing: normal; orphans: 2; text-align: center; text-indent: 0px; text-transform: none; widows: 2; word-spacing: 0px; -webkit-text-stroke-width: 0px; white-space: nowrap; background-color: rgb(251, 251, 251); text-decoration-thickness: initial; text-decoration-style: initial; text-decoration-color: initial;&quot;&gt;&lt;font style=&quot;font-size: 57px;&quot;&gt;Common (shared)&lt;/font&gt;&lt;/b&gt;" style="text;whiteSpace=wrap;html=1;" parent="1" vertex="1">
          <mxGeometry x="-390" y="-25" width="240" height="50" as="geometry" />
        </mxCell>
        <mxCell id="lQJ2qB2qZJZWqwuJhyhI-2" value="" style="rounded=1;whiteSpace=wrap;html=1;fillColor=#D3E8E6;shadow=1;strokeWidth=2;" parent="1" vertex="1">
          <mxGeometry x="-730" y="96.26" width="1150" height="420" as="geometry" />
        </mxCell>
        <mxCell id="lQJ2qB2qZJZWqwuJhyhI-3" value="&lt;b style=&quot;&quot;&gt;&lt;font style=&quot;font-size: 50px;&quot;&gt;Models&lt;/font&gt;&lt;/b&gt;" style="rounded=1;whiteSpace=wrap;html=1;fillColor=#FFFFFF;shadow=1;strokeWidth=2;" parent="1" vertex="1">
          <mxGeometry x="-135" y="125" width="525" height="150" as="geometry" />
        </mxCell>
        <mxCell id="lQJ2qB2qZJZWqwuJhyhI-4" value="&lt;b&gt;&lt;font style=&quot;font-size: 50px;&quot;&gt;Pipes (Async, Date)&lt;/font&gt;&lt;/b&gt;" style="rounded=1;whiteSpace=wrap;html=1;fillColor=#FFFFFF;shadow=1;strokeWidth=2;" parent="1" vertex="1">
          <mxGeometry x="-700" y="125" width="540" height="150.63" as="geometry" />
        </mxCell>
        <mxCell id="lQJ2qB2qZJZWqwuJhyhI-5" value="&lt;b&gt;&lt;font style=&quot;font-size: 50px;&quot;&gt;Utils&lt;/font&gt;&lt;/b&gt;" style="rounded=1;whiteSpace=wrap;html=1;fillColor=#FFFFFF;shadow=1;strokeWidth=2;" parent="1" vertex="1">
          <mxGeometry x="-700" y="316.89" width="550" height="158.75" as="geometry" />
        </mxCell>
        <mxCell id="lQJ2qB2qZJZWqwuJhyhI-6" value="&lt;b style=&quot;&quot;&gt;&lt;font style=&quot;font-size: 50px;&quot;&gt;Data&lt;/font&gt;&lt;/b&gt;" style="rounded=1;whiteSpace=wrap;html=1;fillColor=#FFFFFF;shadow=1;strokeWidth=2;" parent="1" vertex="1">
          <mxGeometry x="-120" y="321.26" width="510" height="150" as="geometry" />
        </mxCell>
      </root>
    </mxGraphModel>
  </diagram>
</mxfile>
